<?xml version="1.0" encoding="UTF-8"?>
<svg width="325px" height="55px" viewBox="0 0 325 55" version="1.1" xmlns="http://www.w3.org/2000/svg" xmlns:xlink="http://www.w3.org/1999/xlink">
    <!-- Generator: Sketch 49.1 (51147) - http://www.bohemiancoding.com/sketch -->
    <title>logo-large</title>
    <desc>Created with Sketch.</desc>
    <defs></defs>
    <g id="logo-large" stroke="none" stroke-width="1" fill="none" fill-rule="evenodd">
        <path d="M19.0734776,49 C13.688701,49 8.7886279,47.783031 4.37311115,45.3490566 C3.45769914,44.6999968 3,43.8075528 3,42.6716981 C3,41.806285 3.29615827,41.0490598 3.88848368,40.4 C4.4808091,39.7509402 5.23466651,39.4264151 6.15007852,39.4264151 C6.63470841,39.4264151 7.11933102,39.5345901 7.60396091,39.7509434 C9.3270894,40.5081799 11.050192,41.1031425 12.7733205,41.5358491 C14.496449,41.9685556 16.4349395,42.1849057 18.5888501,42.1849057 C24.565952,42.1849057 27.5544582,40.2647991 27.5544582,36.4245283 C27.5544582,35.1804969 26.8679095,34.2339655 25.4947915,33.5849057 C24.1216735,32.9358458 21.873563,32.2056644 18.7503926,31.3943396 C15.5733744,30.6371031 12.9483353,29.8528342 10.8751963,29.0415094 C8.80205733,28.2301846 7.02510773,26.9996938 5.54429419,25.35 C4.06348064,23.7003062 3.32308498,21.523284 3.32308498,18.8188679 C3.32308498,15.0326855 4.68272065,11.9496974 7.4020328,9.56981132 C10.1213449,7.18992521 14.0117876,6 19.0734776,6 C23.2197555,6 27.1236599,6.67609387 30.785308,8.02830189 C31.5391767,8.24465517 32.1180315,8.65031149 32.5218897,9.24528302 C32.9257479,9.84025455 33.127674,10.4622609 33.127674,11.1113208 C33.127674,11.9767339 32.818054,12.733959 32.1988047,13.3830189 C31.5795554,14.0320787 30.8122363,14.3566038 29.8968243,14.3566038 C29.6275854,14.3566038 29.2775802,14.3025163 28.8467981,14.1943396 C25.7236277,13.2207498 22.6543511,12.7339623 19.6388763,12.7339623 C16.7310969,12.7339623 14.456063,13.2613155 12.8137062,14.3160377 C11.1713493,15.37076 10.3501832,16.7364696 10.3501832,18.4132075 C10.3501832,20.0358572 11.1040406,21.2257824 12.611778,21.9830189 C14.1195155,22.7402554 16.4618581,23.4704367 19.6388763,24.1735849 C22.8158944,24.9849097 25.4005484,25.7827005 27.3929157,26.5669811 C29.385283,27.3512618 31.0949239,28.5817526 32.5218897,30.2584906 C33.9488555,31.9352285 34.6623277,34.1798602 34.6623277,36.9924528 C34.6623277,40.4541054 33.302692,43.3207434 30.5833798,45.5924528 C27.8640677,47.8641623 24.027472,49 19.0734776,49 Z M59.9184859,49 C56.0414468,49 52.4606241,48.1345998 49.1759105,46.4037736 C45.8911968,44.6729473 43.2661576,42.1849219 41.3007142,38.9396226 C39.3352707,35.6943234 38.3525638,31.881154 38.3525638,27.5 C38.3525638,23.118846 39.3352707,19.3056766 41.3007142,16.0603774 C43.2661576,12.8150781 45.8911968,10.3270527 49.1759105,8.59622642 C52.4606241,6.86540015 56.0414468,6 59.9184859,6 C62.7724175,6 65.2359158,6.36509069 67.3090547,7.09528302 C69.3821937,7.82547535 71.3072224,8.75848489 73.0841987,9.89433962 C74.161154,10.5974878 74.6996236,11.5440192 74.6996236,12.7339623 C74.6996236,13.5452871 74.3900036,14.2889903 73.7707543,14.9650943 C73.151505,15.6411983 72.4380328,15.9792453 71.6303163,15.9792453 C71.0379909,15.9792453 70.4456744,15.8169828 69.8533489,15.4924528 C68.0763727,14.5729514 66.5551961,13.9103794 65.2897736,13.504717 C64.0243512,13.0990546 62.4493277,12.8962264 60.5646559,12.8962264 C55.9337481,12.8962264 52.2990784,14.2348923 49.6605379,16.9122642 C47.0219974,19.589636 45.702747,23.118846 45.702747,27.5 C45.702747,31.881154 47.0219974,35.410364 49.6605379,38.0877358 C52.2990784,40.7651077 55.9337481,42.1037736 60.5646559,42.1037736 C62.4493277,42.1037736 64.0243512,41.9009454 65.2897736,41.495283 C66.5551961,41.0896206 68.0763727,40.4270486 69.8533489,39.5075472 C70.4456744,39.1830172 71.0379909,39.0207547 71.6303163,39.0207547 C72.4380328,39.0207547 73.151505,39.3588017 73.7707543,40.0349057 C74.3900036,40.7110097 74.6996236,41.4547129 74.6996236,42.2660377 C74.6996236,43.4559808 74.161154,44.4025122 73.0841987,45.1056604 C71.3072224,46.2415151 69.3821937,47.1745247 67.3090547,47.904717 C65.2359158,48.6349093 62.7724175,49 59.9184859,49 Z M83.8823043,48.5943396 C82.8591967,48.5943396 81.9976454,48.2427708 81.2976245,47.5396226 C80.5976035,46.8364745 80.2475983,45.9710743 80.2475983,44.9433962 L80.2475983,10.1377358 C80.2475983,9.11005775 80.5976035,8.23113573 81.2976245,7.5009434 C81.9976454,6.77075107 82.8591967,6.40566038 83.8823043,6.40566038 C84.9054118,6.40566038 85.7804249,6.77075107 86.5073697,7.5009434 C87.2343145,8.23113573 87.5977815,9.11005775 87.5977815,10.1377358 L87.5977815,13.6264151 C91.3671251,8.54211294 95.5941112,6 100.278867,6 L100.682723,6 C101.705831,6 102.55392,6.35156881 103.227017,7.05471698 C103.900114,7.75786515 104.236658,8.6232653 104.236658,9.6509434 C104.236658,10.6786215 103.886653,11.5169779 103.186632,12.1660377 C102.486611,12.8150976 101.598136,13.1396226 100.521181,13.1396226 L100.117324,13.1396226 C97.5326316,13.1396226 95.1633655,13.7751509 93.0094548,15.0462264 C90.8555442,16.317302 89.0516712,18.0616241 87.5977815,20.2792453 L87.5977815,44.9433962 C87.5977815,45.9710743 87.2343145,46.8364745 86.5073697,47.5396226 C85.7804249,48.2427708 84.9054118,48.5943396 83.8823043,48.5943396 Z M124.727313,49 C118.157885,49 113.028963,47.120459 109.340391,43.3613208 C105.651819,39.6021825 103.80756,34.3151284 103.80756,27.5 C103.80756,23.6597292 104.507571,20.1169974 105.907613,16.8716981 C107.307655,13.6263989 109.461533,11.0031547 112.369312,9.00188679 C115.277092,7.00061892 118.857914,6 123.111888,6 C127.096622,6 130.542828,6.93300954 133.450607,8.7990566 C136.358386,10.6651037 138.566112,13.1531291 140.073849,16.2632075 C141.581586,19.373286 142.335444,22.7672772 142.335444,26.445283 C142.335444,27.4729611 141.9989,28.3383613 141.325803,29.0415094 C140.652706,29.7446576 139.75077,30.0962264 138.619967,30.0962264 L111.238515,30.0962264 C111.669297,33.8824089 113.069318,36.8301781 115.43862,38.9396226 C117.807921,41.0490672 121.119509,42.1037736 125.373483,42.1037736 C127.635089,42.1037736 129.613964,41.8874235 131.310169,41.454717 C133.006374,41.0220104 134.662168,40.4000041 136.277601,39.5886792 C136.708383,39.372326 137.193005,39.2641509 137.731483,39.2641509 C138.593047,39.2641509 139.346905,39.5616322 139.993078,40.1566038 C140.639251,40.7515753 140.962333,41.5088004 140.962333,42.4283019 C140.962333,43.6182449 140.262322,44.6188639 138.86228,45.4301887 C136.762217,46.6201317 134.68911,47.5125756 132.642895,48.1075472 C130.596679,48.7025187 127.958179,49 124.727313,49 Z M135.066032,24.0924528 C134.904489,21.4421251 134.21794,19.2245372 133.006365,17.4396226 C131.79479,15.6547081 130.300537,14.343086 128.523561,13.504717 C126.746585,12.666348 124.942712,12.2471698 123.111888,12.2471698 C121.281064,12.2471698 119.477191,12.666348 117.700214,13.504717 C115.923238,14.343086 114.442447,15.6547081 113.257796,17.4396226 C112.073145,19.2245372 111.400058,21.4421251 111.238515,24.0924528 L135.066032,24.0924528 Z M166.78389,49 C160.214462,49 155.08554,47.120459 151.396968,43.3613208 C147.708396,39.6021825 145.864137,34.3151284 145.864137,27.5 C145.864137,23.6597292 146.564148,20.1169974 147.96419,16.8716981 C149.364232,13.6263989 151.51811,11.0031547 154.425889,9.00188679 C157.333669,7.00061892 160.914491,6 165.168465,6 C169.153199,6 172.599405,6.93300954 175.507184,8.7990566 C178.414963,10.6651037 180.622689,13.1531291 182.130426,16.2632075 C183.638163,19.373286 184.392021,22.7672772 184.392021,26.445283 C184.392021,27.4729611 184.055477,28.3383613 183.38238,29.0415094 C182.709283,29.7446576 181.807347,30.0962264 180.676544,30.0962264 L153.295092,30.0962264 C153.725874,33.8824089 155.125895,36.8301781 157.495197,38.9396226 C159.864498,41.0490672 163.176086,42.1037736 167.43006,42.1037736 C169.691666,42.1037736 171.670541,41.8874235 173.366746,41.454717 C175.062951,41.0220104 176.718745,40.4000041 178.334178,39.5886792 C178.76496,39.372326 179.249582,39.2641509 179.78806,39.2641509 C180.649624,39.2641509 181.403482,39.5616322 182.049655,40.1566038 C182.695828,40.7515753 183.01891,41.5088004 183.01891,42.4283019 C183.01891,43.6182449 182.318899,44.6188639 180.918857,45.4301887 C178.818794,46.6201317 176.745687,47.5125756 174.699472,48.1075472 C172.653256,48.7025187 170.014756,49 166.78389,49 Z M177.122609,24.0924528 C176.961066,21.4421251 176.274517,19.2245372 175.062942,17.4396226 C173.851367,15.6547081 172.357114,14.343086 170.580138,13.504717 C168.803162,12.666348 166.999289,12.2471698 165.168465,12.2471698 C163.337641,12.2471698 161.533768,12.666348 159.756791,13.504717 C157.979815,14.343086 156.499024,15.6547081 155.314373,17.4396226 C154.129722,19.2245372 153.456635,21.4421251 153.295092,24.0924528 L177.122609,24.0924528 Z M194.059329,48.5943396 C193.036221,48.5943396 192.17467,48.2427708 191.474649,47.5396226 C190.774628,46.8364745 190.424623,45.9710743 190.424623,44.9433962 L190.424623,10.1377358 C190.424623,9.11005775 190.774628,8.23113573 191.474649,7.5009434 C192.17467,6.77075107 193.036221,6.40566038 194.059329,6.40566038 C195.082437,6.40566038 195.95745,6.77075107 196.684394,7.5009434 C197.411339,8.23113573 197.774806,9.11005775 197.774806,10.1377358 L197.774806,13.4641509 C199.821021,11.1924415 202.028747,9.38050991 204.398048,8.02830189 C206.76735,6.67609387 209.567392,6 212.798258,6 C215.759885,6 218.331077,6.70313762 220.511911,8.10943396 C222.692746,9.5157303 224.362002,11.4358369 225.519729,13.8698113 C226.677455,16.3037858 227.25631,18.9811175 227.25631,21.9018868 L227.25631,44.9433962 C227.25631,45.9710743 226.892843,46.8364745 226.165898,47.5396226 C225.438954,48.2427708 224.563941,48.5943396 223.540833,48.5943396 C222.517726,48.5943396 221.656174,48.2427708 220.956153,47.5396226 C220.256132,46.8364745 219.906127,45.9710743 219.906127,44.9433962 L219.906127,22.7132075 C219.906127,16.1144324 216.944544,12.8150943 211.02129,12.8150943 C208.328902,12.8150943 205.919251,13.518232 203.792264,14.9245283 C201.665277,16.3308246 199.659478,18.2238875 197.774806,20.6037736 L197.774806,44.9433962 C197.774806,45.9710743 197.411339,46.8364745 196.684394,47.5396226 C195.95745,48.2427708 195.082437,48.5943396 194.059329,48.5943396 Z M254.370207,49 C247.80078,49 242.671857,47.120459 238.983285,43.3613208 C235.294713,39.6021825 233.450455,34.3151284 233.450455,27.5 C233.450455,23.6597292 234.150465,20.1169974 235.550507,16.8716981 C236.950549,13.6263989 239.104427,11.0031547 242.012207,9.00188679 C244.919986,7.00061892 248.500809,6 252.754782,6 C256.739517,6 260.185722,6.93300954 263.093502,8.7990566 C266.001281,10.6651037 268.209006,13.1531291 269.716744,16.2632075 C271.224481,19.373286 271.978338,22.7672772 271.978338,26.445283 C271.978338,27.4729611 271.641795,28.3383613 270.968698,29.0415094 C270.295601,29.7446576 269.393664,30.0962264 268.262861,30.0962264 L240.881409,30.0962264 C241.312192,33.8824089 242.712212,36.8301781 245.081514,38.9396226 C247.450816,41.0490672 250.762404,42.1037736 255.016377,42.1037736 C257.277983,42.1037736 259.256859,41.8874235 260.953064,41.454717 C262.649268,41.0220104 264.305062,40.4000041 265.920495,39.5886792 C266.351277,39.372326 266.8359,39.2641509 267.374377,39.2641509 C268.235942,39.2641509 268.989799,39.5616322 269.635972,40.1566038 C270.282145,40.7515753 270.605227,41.5088004 270.605227,42.4283019 C270.605227,43.6182449 269.905217,44.6188639 268.505175,45.4301887 C266.405112,46.6201317 264.332004,47.5125756 262.285789,48.1075472 C260.239574,48.7025187 257.601073,49 254.370207,49 Z M264.708926,24.0924528 C264.547383,21.4421251 263.860834,19.2245372 262.64926,17.4396226 C261.437685,15.6547081 259.943432,14.343086 258.166456,13.504717 C256.389479,12.666348 254.585606,12.2471698 252.754782,12.2471698 C250.923958,12.2471698 249.120085,12.666348 247.343109,13.504717 C245.566133,14.343086 244.085341,15.6547081 242.90069,17.4396226 C241.71604,19.2245372 241.042953,21.4421251 240.881409,24.0924528 L264.708926,24.0924528 Z M281.645647,48.5943396 C280.622539,48.5943396 279.760988,48.2427708 279.060967,47.5396226 C278.360946,46.8364745 278.010941,45.9710743 278.010941,44.9433962 L278.010941,10.1377358 C278.010941,9.11005775 278.360946,8.23113573 279.060967,7.5009434 C279.760988,6.77075107 280.622539,6.40566038 281.645647,6.40566038 C282.668754,6.40566038 283.543767,6.77075107 284.270712,7.5009434 C284.997657,8.23113573 285.361124,9.11005775 285.361124,10.1377358 L285.361124,13.6264151 C289.130467,8.54211294 293.357453,6 298.042209,6 L298.446065,6 C299.469173,6 300.317262,6.35156881 300.990359,7.05471698 C301.663457,7.75786515 302,8.6232653 302,9.6509434 C302,10.6786215 301.649995,11.5169779 300.949974,12.1660377 C300.249953,12.8150976 299.361478,13.1396226 298.284523,13.1396226 L297.880667,13.1396226 C295.295974,13.1396226 292.926708,13.7751509 290.772797,15.0462264 C288.618886,16.317302 286.815013,18.0616241 285.361124,20.2792453 L285.361124,44.9433962 C285.361124,45.9710743 284.997657,46.8364745 284.270712,47.5396226 C283.543767,48.2427708 282.668754,48.5943396 281.645647,48.5943396 Z" id="screener" fill="#2E2E2E"></path>
        <g id="Graph" transform="translate(290.000000, 5.000000)">
            <rect id="Rectangle-3" fill="#64B80B" x="0" y="21" width="7" height="22" rx="3.5"></rect>
            <rect id="Rectangle-3-Copy-3" fill="#71C910" x="12" y="12" width="7" height="31" rx="3.5"></rect>
            <rect id="Rectangle-3-Copy-4" fill="#77D611" x="24" y="0" width="7" height="43" rx="3.5"></rect>
        </g>
    </g>
</svg>