<svg width="32" height="32" viewBox="0 0 32 32" fill="none" xmlns="http://www.w3.org/2000/svg">
<g clip-path="url(#clip0)">
<path d="M27.3387 4.65026C24.3305 1.65324 20.3305 0.00182855 16.0688 0C7.28692 0 0.140205 7.113 0.136689 15.8559C0.135665 18.6506 0.86911 21.3786 2.26319 23.7833L0.00292969 32L8.44874 29.7951C10.7757 31.0586 13.3958 31.7244 16.062 31.7255H16.0688H16.0688C24.8493 31.7255 31.9971 24.6112 32.0009 15.8687C32.0023 11.6315 30.3465 7.64748 27.3387 4.65026ZM16.0688 29.0473H16.0637C13.6871 29.0461 11.3566 28.4109 9.32382 27.2099L8.84005 26.9244L3.82813 28.2327L5.16624 23.3694L4.85105 22.8708C3.5254 20.7722 2.82556 18.3471 2.82656 15.8569C2.82947 8.5901 8.76955 2.67822 16.0738 2.67822C19.611 2.67968 22.9355 4.05235 25.4358 6.54338C27.9359 9.03438 29.3118 12.3458 29.3107 15.8676C29.3076 23.1347 23.3674 29.0473 16.0688 29.0473Z" fill="#E0E0E0"/>
<path d="M0.732422 31.0884L2.88944 23.247C1.55869 20.9522 0.858887 18.3485 0.859727 15.682C0.863216 7.33866 7.68354 0.550781 16.0636 0.550781C20.1308 0.55261 23.9482 2.1285 26.8183 4.98869C29.689 7.84886 31.269 11.6506 31.2674 15.6938C31.2639 24.0374 24.4432 30.8259 16.0642 30.8259C16.0636 30.8259 16.0646 30.8259 16.0642 30.8259H16.0574C13.513 30.8251 11.0128 30.1892 8.79228 28.9843L0.732422 31.0884Z" fill="url(#paint0_linear)"/>
<path fill-rule="evenodd" clip-rule="evenodd" d="M12.1299 9.12412C11.8351 8.47167 11.5248 8.45861 11.2444 8.44719C11.015 8.43739 10.7524 8.438 10.4902 8.438C10.2279 8.438 9.8015 8.53616 9.44095 8.9282C9.08018 9.32024 8.06348 10.268 8.06348 12.1955C8.06348 14.1232 9.47374 15.9859 9.67031 16.2475C9.8671 16.5087 12.3927 20.5907 16.3924 22.1611C19.7166 23.4662 20.3931 23.2066 21.1146 23.1413C21.8361 23.076 23.4428 22.1937 23.7707 21.2788C24.0987 20.3642 24.0987 19.5801 24.0003 19.4162C23.9019 19.2529 23.6395 19.155 23.246 18.9591C22.8524 18.7632 20.9178 17.8152 20.557 17.6846C20.1963 17.554 19.9339 17.4887 19.6715 17.8809C19.4092 18.2728 18.6554 19.155 18.4259 19.4162C18.1963 19.678 17.9667 19.7107 17.5731 19.5148C17.1796 19.3182 15.9122 18.905 14.4087 17.5703C13.2388 16.5319 12.449 15.2495 12.2194 14.8573C11.9899 14.4654 12.1948 14.2532 12.3922 14.0579C12.5689 13.8824 12.7858 13.6005 12.9826 13.3718C13.179 13.143 13.2445 12.9797 13.3757 12.7185C13.5069 12.4569 13.4413 12.2281 13.3429 12.0322C13.2445 11.8363 12.4798 9.8988 12.1299 9.12412Z" fill="white"/>
<path d="M27.2066 4.59982C24.2329 1.63721 20.2788 0.00478436 16.0661 0.00292969C7.38494 0.00292969 0.320271 7.03427 0.316781 15.6768C0.315758 18.4394 1.04078 21.1361 2.41886 23.5132L0.18457 31.6356L8.53344 29.456C10.8337 30.705 13.4237 31.3631 16.0593 31.3641H16.066H16.0661C24.7458 31.3641 31.8115 24.3316 31.8152 15.6894C31.8166 11.5009 30.1798 7.56264 27.2066 4.59982ZM16.0661 28.7168H16.061C13.7117 28.7156 11.4079 28.0877 9.39846 26.9006L8.92023 26.6183L3.96585 27.9116L5.28859 23.1041L4.97702 22.6112C3.66658 20.5368 2.97478 18.1394 2.9758 15.6778C2.97866 8.49447 8.85054 2.65046 16.071 2.65046C19.5676 2.65189 22.8538 4.00881 25.3255 6.47123C27.7969 8.93366 29.157 12.2071 29.156 15.6885C29.1529 22.872 23.2808 28.7168 16.0661 28.7168Z" fill="white"/>
</g>
<defs>
<linearGradient id="paint0_linear" x1="15.9999" y1="31.0884" x2="15.9999" y2="0.550832" gradientUnits="userSpaceOnUse">
<stop stop-color="#20B038"/>
<stop offset="1" stop-color="#60D66A"/>
</linearGradient>
<clipPath id="clip0">
<rect width="32" height="32" fill="white"/>
</clipPath>
</defs>
</svg>
