<svg width="24" height="24" viewBox="0 0 24 24" fill="none" xmlns="http://www.w3.org/2000/svg">
<rect width="24" height="24" rx="12" fill="#0657A8"/>
<mask id="mask0_29_33" style="mask-type:alpha" maskUnits="userSpaceOnUse" x="4" y="4" width="16" height="16">
<rect x="4" y="4" width="16" height="16" fill="#D9D9D9"/>
</mask>
<g mask="url(#mask0_29_33)">
<path d="M9.96582 14.5813L16.3221 8.225C16.4721 8.075 16.6502 8 16.8564 8C17.0627 8 17.2408 8.075 17.3908 8.225C17.5408 8.375 17.6158 8.55313 17.6158 8.75938C17.6158 8.96563 17.5408 9.14375 17.3908 9.29375L10.4908 16.1938C10.3408 16.3438 10.1658 16.4188 9.96582 16.4188C9.76582 16.4188 9.59082 16.3438 9.44082 16.1938L6.21582 12.9688C6.06582 12.8188 5.99394 12.6406 6.00019 12.4344C6.00644 12.2281 6.08457 12.05 6.23457 11.9C6.38457 11.75 6.56269 11.675 6.76894 11.675C6.97519 11.675 7.15332 11.75 7.30332 11.9L9.96582 14.5813Z" fill="white"/>
</g>
</svg>
