<svg width="32" height="32" viewBox="0 0 32 32" fill="none" xmlns="http://www.w3.org/2000/svg">
<path d="M16 32C24.8366 32 32 24.8366 32 16C32 7.16344 24.8366 0 16 0C7.16344 0 0 7.16344 0 16C0 24.8366 7.16344 32 16 32Z" fill="#387BD9"/>
<path d="M7.93253 10.1108C7.78477 10.1108 7.64544 10.1364 7.51358 10.1888L10.1535 12.9066L12.8228 15.6731L12.8714 15.7317L12.9493 15.8097L13.0273 15.8876L13.1831 16.0531L15.4724 18.4007C15.5104 18.4244 15.6211 18.5266 15.7074 18.57C15.8187 18.6254 15.939 18.6769 16.0631 18.6812C16.1971 18.6859 16.334 18.6476 16.4546 18.589C16.545 18.545 16.5852 18.4821 16.69 18.401L19.3396 15.6638L22.0185 12.907L24.5998 10.2477C24.4324 10.1571 24.2447 10.1101 24.0543 10.1111H7.93253V10.1108ZM7.12393 10.4419C6.84245 10.7087 6.66602 11.1096 6.66602 11.5622V20.4852C6.66602 20.8514 6.78353 21.1843 6.97773 21.4396L7.34774 21.089L10.1046 18.41L12.5497 16.0429L12.5011 15.9846L9.82217 13.2277L7.14326 10.4612L7.12393 10.4419ZM24.9505 10.5298L22.3399 13.228L19.6706 15.9849L19.622 16.0335L22.1644 18.4979L24.9212 21.1769L25.0867 21.3327C25.2351 21.0946 25.3205 20.8012 25.3205 20.4852V11.5622C25.3205 11.1588 25.1809 10.7929 24.9505 10.5298ZM12.8614 16.3645L10.4263 18.7317L7.65978 21.4106L7.30909 21.7517C7.49394 21.8708 7.70435 21.9465 7.93253 21.9465H24.0543C24.3286 21.9465 24.5774 21.8411 24.785 21.6738L24.6098 21.4985L21.8433 18.8196L19.3009 16.3649L17.0117 18.7221C16.8879 18.8044 16.805 18.8954 16.684 18.9512C16.4892 19.0413 16.276 19.1173 16.0615 19.1142C15.8464 19.1108 15.6354 19.0266 15.4425 18.9319C15.3455 18.8842 15.2938 18.8368 15.1803 18.7417L12.8614 16.3645Z" fill="white"/>
</svg>
