<svg width="30" height="30" viewBox="0 0 30 30" fill="none" xmlns="http://www.w3.org/2000/svg">
<path d="M15 30C23.2843 30 30 23.2843 30 15C30 6.71573 23.2843 0 15 0C6.71573 0 0 6.71573 0 15C0 23.2843 6.71573 30 15 30Z" fill="#2196F3"/>
<path d="M21.6667 17.8758C20.2283 17.8758 18.8567 17.5625 17.5917 16.9441C17.3933 16.8491 17.1633 16.8341 16.9533 16.9058C16.7433 16.9791 16.5717 17.1325 16.475 17.3308L15.875 18.5725C14.075 17.5391 12.5817 16.0441 11.5467 14.2441L12.79 13.6441C12.99 13.5475 13.1417 13.3758 13.215 13.1658C13.2867 12.9558 13.2733 12.7258 13.1767 12.5275C12.5567 11.2641 12.2433 9.89247 12.2433 8.45247C12.2433 7.99247 11.87 7.61914 11.41 7.61914H8.33333C7.87333 7.61914 7.5 7.99247 7.5 8.45247C7.5 16.2641 13.855 22.6191 21.6667 22.6191C22.1267 22.6191 22.5 22.2458 22.5 21.7858V18.7091C22.5 18.2491 22.1267 17.8758 21.6667 17.8758Z" fill="#FAFAFA"/>
</svg>
